<svg xmlns="http://www.w3.org/2000/svg" viewBox="0 0 100.71 112.82"><defs><style>.cls-1{fill:#86c3d0;}.cls-2{fill:#fff;}.cls-3{font-size:12px;fill:#1d1d1b;font-family:MyriadPro-Regular, Myriad Pro;}.cls-4{letter-spacing:0em;}</style></defs><g id="API"><path class="cls-1" d="M50.35,13.37a43,43,0,1,0,43.05,43A43,43,0,0,0,50.35,13.37Z"/><path class="cls-2" d="M67.33,78.65H39.78A2.61,2.61,0,0,1,37.17,76V71.88a.84.84,0,0,1,.36-.7,7.06,7.06,0,0,0,2-2.21.85.85,0,0,1,.75-.43H42.6L45,66.79a.86.86,0,0,1,1-.05l2.72,1.64,2.53-1.62a.86.86,0,0,1,1,0l.49.38V62.46H40.28a.86.86,0,0,1-.75-.44,6.76,6.76,0,0,0-2-2.19.88.88,0,0,1-.36-.71V55a2.62,2.62,0,0,1,2.61-2.62H67.33A2.63,2.63,0,0,1,70,55V76A2.62,2.62,0,0,1,67.33,78.65ZM38.9,72.32V76a.89.89,0,0,0,.88.88H67.33a.87.87,0,0,0,.88-.88V55a.88.88,0,0,0-.88-.88H39.78a.89.89,0,0,0-.88.88v3.72a8.62,8.62,0,0,1,1.87,2H53.55a.87.87,0,0,1,.87.87V69a.87.87,0,0,1-.49.78.86.86,0,0,1-.91-.1l-1.41-1.11-2.46,1.59a.87.87,0,0,1-.92,0l-2.69-1.62L43.4,70.11a.94.94,0,0,1-.52.16H40.77A8.69,8.69,0,0,1,38.9,72.32Z"/><path class="cls-2" d="M65.84,54.08H61.47a.87.87,0,0,1-.87-.87v-5.9a7,7,0,0,0-14.08,0v5.9a.87.87,0,0,1-.87.87H41.28a.87.87,0,0,1-.87-.87v-5.9a13.15,13.15,0,1,1,26.3,0v5.9A.87.87,0,0,1,65.84,54.08Zm-3.5-1.74H65v-5a11.41,11.41,0,1,0-22.82,0v5h2.63v-5a8.78,8.78,0,0,1,17.56,0Z"/><path class="cls-2" d="M31.71,69a3.51,3.51,0,1,1,3.51-3.51A3.51,3.51,0,0,1,31.71,69Zm0-5.29a1.78,1.78,0,1,0,1.77,1.78A1.78,1.78,0,0,0,31.71,63.72Z"/><path class="cls-2" d="M33.48,74.22a8.72,8.72,0,1,1,5.06-15.81,8.59,8.59,0,0,1,2.23,2.31H53.55a.87.87,0,0,1,.87.87V69a.87.87,0,0,1-.49.78.86.86,0,0,1-.91-.1l-1.41-1.11-2.46,1.59a.87.87,0,0,1-.92,0l-2.69-1.62L43.4,70.11a.94.94,0,0,1-.52.16H40.77a8.75,8.75,0,0,1-7.29,4Zm0-15.69a7,7,0,1,0,4.05,12.65,7.06,7.06,0,0,0,2-2.21.85.85,0,0,1,.75-.43H42.6L45,66.79a.86.86,0,0,1,1-.05l2.72,1.64,2.53-1.62a.86.86,0,0,1,1,0l.49.38V62.46H40.28a.86.86,0,0,1-.75-.44,6.76,6.76,0,0,0-2-2.19A6.93,6.93,0,0,0,33.48,58.53ZM31.71,69a3.51,3.51,0,1,1,3.51-3.51A3.51,3.51,0,0,1,31.71,69Zm0-5.29a1.78,1.78,0,1,0,1.77,1.78A1.78,1.78,0,0,0,31.71,63.72Z"/><path class="cls-2" d="M31.71,69a3.51,3.51,0,1,1,3.51-3.51A3.51,3.51,0,0,1,31.71,69Zm0-5.29a1.78,1.78,0,1,0,1.77,1.78A1.78,1.78,0,0,0,31.71,63.72Z"/><path class="cls-2" d="M53.56,73.69a.87.87,0,0,1-.87-.87V69a.87.87,0,0,1,1.74,0v3.85A.87.87,0,0,1,53.56,73.69Z"/><path class="cls-2" d="M53.56,62.37a.87.87,0,0,1-.87-.87V57.65a.87.87,0,0,1,1.74,0V61.5A.87.87,0,0,1,53.56,62.37Z"/></g><g id="HOSTING"><text class="cls-3" transform="translate(17.93 -4.98)"><tspan class="cls-4">A</tspan><tspan x="7.31" y="0">pi Key</tspan></text></g></svg>